<svg width="1200" height="760" viewBox="0 0 1200 760" fill="none" xmlns="http://www.w3.org/2000/svg">
  <rect width="1200" height="760" rx="48" fill="url(#bg)"/>
  <circle cx="170" cy="140" r="92" fill="#DDEEEB"/>
  <circle cx="1030" cy="618" r="118" fill="#FFF3E4"/>
  <rect x="92" y="472" width="1016" height="40" rx="20" fill="#D5C4B0"/>
  <path d="M226 434H786V256C786 225 761 200 730 200H364C333 200 304 216 288 243L226 350V434Z" fill="#16565C"/>
  <path d="M786 434H1042V364C1042 329 1013 300 978 300H846L786 348V434Z" fill="#D46534"/>
  <rect x="818" y="318" width="146" height="78" rx="18" fill="#F7F3ED"/>
  <rect x="832" y="332" width="56" height="50" rx="12" fill="#C6E5EA"/>
  <rect x="896" y="332" width="56" height="50" rx="12" fill="#C6E5EA"/>
  <rect x="270" y="242" width="454" height="144" rx="20" fill="#F8FBFD" fill-opacity="0.92"/>
  <path d="M348 242V386" stroke="#C2D1D7" stroke-width="8"/>
  <path d="M452 242V386" stroke="#C2D1D7" stroke-width="8"/>
  <path d="M556 242V386" stroke="#C2D1D7" stroke-width="8"/>
  <path d="M660 242V386" stroke="#C2D1D7" stroke-width="8"/>
  <circle cx="384" cy="492" r="76" fill="#2A2D31"/>
  <circle cx="384" cy="492" r="38" fill="#D9DFE3"/>
  <circle cx="916" cy="492" r="76" fill="#2A2D31"/>
  <circle cx="916" cy="492" r="38" fill="#D9DFE3"/>
  <rect x="210" y="420" width="68" height="18" rx="9" fill="#0F3D40"/>
  <rect x="1010" y="420" width="58" height="18" rx="9" fill="#8F3A1D"/>
  <text x="104" y="104" fill="#8F3A1D" font-family="Arial, sans-serif" font-size="38" font-weight="700">Закрытая газель</text>
  <text x="104" y="154" fill="#4F4740" font-family="Arial, sans-serif" font-size="22">Перевозка мебели, коробок и техники</text>
  <defs>
    <linearGradient id="bg" x1="84" y1="60" x2="1080" y2="686" gradientUnits="userSpaceOnUse">
      <stop stop-color="#FFF8EF"/>
      <stop offset="1" stop-color="#E8F2EF"/>
    </linearGradient>
  </defs>
</svg>
