<svg width="1200" height="760" viewBox="0 0 1200 760" fill="none" xmlns="http://www.w3.org/2000/svg">
  <rect width="1200" height="760" rx="48" fill="url(#bg)"/>
  <rect x="108" y="438" width="984" height="38" rx="19" fill="#DCC9B5"/>
  <rect x="170" y="284" width="264" height="154" rx="26" fill="#F7F1E8"/>
  <rect x="478" y="224" width="292" height="214" rx="32" fill="#FFF9F2"/>
  <rect x="814" y="322" width="212" height="116" rx="26" fill="#F5EADF"/>
  <rect x="548" y="126" width="152" height="98" rx="26" fill="#184C52"/>
  <path d="M590 162H658" stroke="#FFF7EF" stroke-width="14" stroke-linecap="round"/>
  <path d="M590 190H632" stroke="#FFF7EF" stroke-width="14" stroke-linecap="round"/>
  <rect x="210" y="332" width="184" height="106" rx="18" fill="#D46534"/>
  <path d="M264 332V438" stroke="#F6B38B" stroke-width="10"/>
  <path d="M340 332V438" stroke="#F6B38B" stroke-width="10"/>
  <rect x="852" y="240" width="132" height="82" rx="20" fill="#D46534"/>
  <path d="M860 260L910 292L972 258" stroke="#FFF3E7" stroke-width="10" stroke-linecap="round" stroke-linejoin="round"/>
  <path d="M592 542C640 494 718 494 768 542" stroke="#184C52" stroke-width="20" stroke-linecap="round"/>
  <circle cx="592" cy="542" r="26" fill="#184C52"/>
  <circle cx="768" cy="542" r="26" fill="#184C52"/>
  <path d="M212 542C260 494 338 494 388 542" stroke="#D46534" stroke-width="20" stroke-linecap="round"/>
  <circle cx="212" cy="542" r="26" fill="#D46534"/>
  <circle cx="388" cy="542" r="26" fill="#D46534"/>
  <text x="108" y="108" fill="#8F3A1D" font-family="Arial, sans-serif" font-size="40" font-weight="700">Связь и логистика</text>
  <text x="108" y="160" fill="#4F4740" font-family="Arial, sans-serif" font-size="22">Оформление заказа, подтверждение деталей и подача машины</text>
  <defs>
    <linearGradient id="bg" x1="68" y1="42" x2="1108" y2="694" gradientUnits="userSpaceOnUse">
      <stop stop-color="#FFF8EF"/>
      <stop offset="1" stop-color="#F0E0CB"/>
    </linearGradient>
  </defs>
</svg>
