<svg width="96" height="96" viewBox="0 0 96 96" fill="none" xmlns="http://www.w3.org/2000/svg">
  <rect width="96" height="96" rx="28" fill="url(#a)"/>
  <path d="M33.2 27.9999H42.8C45.0091 27.9999 46.8 29.7908 46.8 31.9999V38.3999C46.8 40.6089 45.0091 42.3999 42.8 42.3999H39.8C41.1717 47.0893 44.9106 50.8282 49.6 52.1999V49.1999C49.6 46.9907 51.3909 45.1999 53.6 45.1999H60C62.2091 45.1999 64 46.9907 64 49.1999V58.7999C64 61.009 62.2091 62.7999 60 62.7999H56.8C41.6674 62.7999 29.4 50.5325 29.4 35.3999V31.9999C29.4 29.7908 31.1909 27.9999 33.4 27.9999H33.2Z" fill="#0F5E72"/>
  <path d="M56 32C58.2091 32 60 33.7909 60 36" stroke="#FF9C4A" stroke-width="5" stroke-linecap="round"/>
  <path d="M56 24C62.6274 24 68 29.3726 68 36" stroke="#FF9C4A" stroke-width="5" stroke-linecap="round"/>
  <defs>
    <linearGradient id="a" x1="8" y1="8" x2="88" y2="88" gradientUnits="userSpaceOnUse">
      <stop stop-color="#EAF2FD"/>
      <stop offset="1" stop-color="#EAFDF8"/>
    </linearGradient>
  </defs>
</svg>
